# Blender 4.1.1
# www.blender.org
mtllib lowsphere.mtl
o Sphere
v -0.145641 -1.343074 -0.283471
v -0.202052 0.047616 -1.395813
v -0.152656 1.152262 -0.876779
v 0.475079 -1.024383 -0.909563
v 0.868766 0.783778 -0.868883
v 1.050219 -0.328988 -0.941833
v 1.377321 0.226678 0.160421
v 1.154124 -0.825525 0.323828
v 0.774124 1.145458 0.475002
v 0.836068 0.111262 1.127149
v 0.446876 -1.300312 0.392657
v -0.263936 -0.261046 1.355553
v 0.096121 -0.885853 1.134511
v -0.304471 1.358128 0.185691
v -0.974033 -0.213318 1.053576
v -0.351520 0.784807 1.171012
v -0.731416 -1.170441 0.285378
v -1.449618 -0.159703 -0.070353
v -1.060185 0.968296 -0.088967
v -1.082384 0.448338 -0.792944
v -0.818224 -0.815413 -0.862599
vn 0.1564 0.4143 -0.8966
vn 0.2598 -0.2580 -0.9306
vn 0.2306 0.9609 -0.1532
vn 0.5389 -0.8264 -0.1634
vn 0.9170 0.1731 -0.3594
vn 0.9586 -0.2295 -0.1687
vn 0.7967 0.3558 0.4885
vn 0.1400 0.1834 0.9730
vn 0.0350 0.8631 0.5039
vn -0.1376 -0.8910 0.4327
vn -0.4425 -0.6269 0.6413
vn -0.1232 -0.9777 0.1698
vn -0.7868 -0.6039 -0.1273
vn -0.9263 0.3164 -0.2045
vn -0.3797 0.8966 -0.2280
vn -0.1517 -0.8120 -0.5637
vn 0.3702 0.1208 -0.9211
vn 0.3323 0.9164 -0.2232
vn 0.7278 -0.6160 -0.3014
vn 0.2875 -0.9382 -0.1926
vn 0.8168 0.5690 -0.0956
vn 0.8727 -0.1113 0.4753
vn 0.5679 -0.4162 0.7102
vn 0.4888 -0.6426 0.5901
vn 0.3233 0.5185 0.7916
vn 0.2596 -0.1857 0.9477
vn -0.3806 0.1297 0.9156
vn -0.3686 -0.4915 0.7890
vn -0.7641 0.4188 0.4907
vn -0.8711 0.3071 0.3833
vn -0.5312 0.7431 0.4070
vn -0.8212 -0.4691 0.3251
vn -0.4721 -0.8516 -0.2277
vn -0.8284 -0.1433 -0.5416
vn -0.5560 0.6769 -0.4824
vn -0.5873 -0.0784 -0.8055
vn -0.3828 0.4068 -0.8294
vn -0.1072 -0.4661 -0.8782
vt 0.779076 0.790017
vt 0.632597 0.684614
vt 0.770261 0.499347
vt 0.616773 0.452833
vt 0.666676 0.255558
vt 0.148172 0.887727
vt 0.414380 0.777941
vt 0.469820 0.337775
vt 0.382212 0.152452
vt 0.480929 0.553628
vt 0.350514 0.515559
vt 0.208399 0.680665
vt 0.222250 0.440617
vt 0.260905 0.295872
vt 0.063795 0.192899
vt 0.123546 0.454306
vt 0.013933 0.040674
vt 0.294041 0.085217
vt 0.989293 0.168557
vt 0.972499 0.431202
vt 0.863957 0.300871
vt 0.957252 0.709759
vt 0.897485 0.601767
vt 0.883432 0.904912
vt 0.812994 0.085493
vt 0.033229 0.687099
vt 0.031580 0.480168
s 0
usemtl Specular
f 3/1/1 5/2/1 2/3/1
f 2/3/2 6/4/2 4/5/2
f 3/1/3 14/6/3 9/7/3
f 4/5/4 8/8/4 11/9/4
f 6/4/5 5/2/5 7/10/5
f 7/10/6 8/8/6 6/4/6
f 7/10/7 9/7/7 10/11/7
f 10/11/8 16/12/8 12/13/8
f 9/7/9 14/6/9 16/12/9
f 11/9/10 13/14/10 17/15/10
f 15/16/11 17/15/11 13/14/11
f 17/15/12 1/17/12 11/18/12
f 17/19/13 18/20/13 21/21/13
f 18/20/14 19/22/14 20/23/14
f 14/24/15 3/1/15 19/22/15
f 21/21/16 4/5/16 1/25/16
f 2/3/17 5/2/17 6/4/17
f 3/1/18 9/7/18 5/2/18
f 4/5/19 6/4/19 8/8/19
f 4/5/20 11/9/20 1/25/20
f 5/2/21 9/7/21 7/10/21
f 7/10/22 10/11/22 8/8/22
f 8/8/23 10/11/23 13/14/23
f 11/9/24 8/8/24 13/14/24
f 9/7/25 16/12/25 10/11/25
f 13/14/26 10/11/26 12/13/26
f 12/13/27 16/12/27 15/16/27
f 13/14/28 12/13/28 15/16/28
f 15/16/29 16/12/29 19/26/29
f 15/16/30 19/26/30 18/27/30
f 19/26/31 16/12/31 14/6/31
f 15/16/32 18/27/32 17/15/32
f 1/25/33 17/19/33 21/21/33
f 18/20/34 20/23/34 21/21/34
f 20/23/35 19/22/35 3/1/35
f 21/21/36 20/23/36 2/3/36
f 2/3/37 20/23/37 3/1/37
f 21/21/38 2/3/38 4/5/38
